<?xml version="1.0" encoding="utf-8"?>
<svg xmlns="http://www.w3.org/2000/svg" version="1.1" width="1948px" height="2048px" style="shape-rendering:geometricPrecision; text-rendering:geometricPrecision; image-rendering:optimizeQuality; fill-rule:evenodd; clip-rule:evenodd">
  <g transform="matrix(0.227518, 0, 0, 0.205354, 781.693787, 691.709106)" style="">
    <path style="opacity:1" d="M -0.5,-0.5 C 682.167,-0.5 1364.83,-0.5 2047.5,-0.5C 2047.5,682.167 2047.5,1364.83 2047.5,2047.5C 1364.83,2047.5 682.167,2047.5 -0.5,2047.5C -0.5,1364.83 -0.5,682.167 -0.5,-0.5 Z" fill="#6874E8"/>
  </g>
  <g>
    <path style="opacity:1" d="M 1016.5,717.5 C 1068.91,770.745 1121.91,823.578 1175.5,876C 1122.96,928.707 1070.29,981.207 1017.5,1033.5C 964.653,980.819 911.653,928.319 858.5,876C 911.368,823.299 964.035,770.465 1016.5,717.5 Z" fill="#fcfcfc"/>
  </g>
  <g>
    <path style="opacity:1" d="M 890.5,737.5 C 913.673,737.169 936.673,737.502 959.5,738.5C 926.93,770.614 894.597,802.947 862.5,835.5C 861.503,813.006 861.169,790.339 861.5,767.5C 865.05,751.616 874.717,741.616 890.5,737.5 Z" fill="#fcfcfb"/>
  </g>
  <g>
    <path style="opacity:1" d="M 1139.5,737.5 C 1153.9,740.064 1164.07,748.064 1170,761.5C 1171.77,765.313 1172.61,769.313 1172.5,773.5C 1172.83,794.34 1172.5,815.007 1171.5,835.5C 1138.89,803.554 1106.55,771.221 1074.5,738.5C 1095.99,737.503 1117.66,737.169 1139.5,737.5 Z" fill="#fcfcfc"/>
  </g>
  <g>
    <path style="opacity:1" d="M 1029.5,778.5 C 1030.5,778.5 1031.5,778.5 1032.5,778.5C 1033.55,778.351 1034.55,778.517 1035.5,779C 1046.94,788.434 1057.77,798.601 1068,809.5C 1072.97,823.202 1068.14,829.369 1053.5,828C 1043.06,819.567 1033.23,810.401 1024,800.5C 1021.6,795.768 1020.93,790.768 1022,785.5C 1023.74,782.261 1026.24,779.927 1029.5,778.5 Z" fill="#6874E8"/>
  </g>
  <g>
    <path style="opacity:1" d="M 984.5,792.5 C 987.518,792.335 990.518,792.502 993.5,793C 994.126,793.75 994.626,794.584 995,795.5C 996.375,803.857 995.375,811.857 992,819.5C 973.319,838.014 954.819,856.681 936.5,875.5C 962.963,902.464 989.796,929.464 1017,956.5C 1044.01,929.32 1071.18,902.32 1098.5,875.5C 1091.06,869.564 1084.89,862.564 1080,854.5C 1078.67,845.167 1082.67,839.833 1092,838.5C 1094.54,838.384 1096.71,839.217 1098.5,841C 1109.99,851.992 1120.99,863.492 1131.5,875.5C 1093.86,914.805 1055.53,953.472 1016.5,991.5C 977.833,953.5 939.5,915.167 901.5,876.5C 927.851,847.15 955.517,819.15 984.5,792.5 Z" fill="#6874E8"/>
  </g>
  <g>
    <path style="opacity:1" d="M 862.5,915.5 C 913.614,967.281 964.948,1018.61 1016.5,1069.5C 1019.64,1067.53 1022.64,1065.36 1025.5,1063C 1074.37,1014.3 1123.03,965.465 1171.5,916.5C 1172.5,957.663 1172.83,998.997 1172.5,1040.5C 1169.19,1057.31 1159.19,1067.81 1142.5,1072C 1100.2,1073.15 1057.87,1073.65 1015.5,1073.5C 974.833,1073.33 934.167,1073.17 893.5,1073C 875.915,1068.91 865.248,1058.08 861.5,1040.5C 861.168,998.663 861.501,956.997 862.5,915.5 Z" fill="#fcfcfc"/>
  </g>
</svg>